<svg width="32" height="32" viewBox="0 0 32 32" fill="none" xmlns="http://www.w3.org/2000/svg">
<g clip-path="url(#clip0_1_76)">
<path d="M22.6667 29.3333C24.88 29.3333 26.6667 27.5467 26.6667 25.3333C26.6667 23.12 24.88 21.3333 22.6667 21.3333C20.9334 21.3333 19.4667 22.4533 18.9067 24H12.1867L14.84 19.92C15.2267 19.9733 15.6134 20 16 20C16.3867 20 16.7734 19.9733 17.16 19.92L18.52 22.0133C19.08 21.3067 19.8 20.7467 20.6534 20.4L19.8534 19.16C23.08 17.6933 25.3334 14.4533 25.3334 10.6667H6.66669C6.66669 14.4533 8.92002 17.6933 12.16 19.16L6.89335 27.2667C6.49335 27.88 6.66669 28.7067 7.28002 29.1067C7.89335 29.5067 8.72002 29.3333 9.12002 28.72L10.4534 26.6533H18.9067C19.4667 28.2133 20.9334 29.3333 22.6667 29.3333ZM22.6667 24C23.4 24 24 24.6 24 25.3333C24 26.0667 23.4 26.6667 22.6667 26.6667C21.9334 26.6667 21.3334 26.0667 21.3334 25.3333C21.3334 24.6 21.9334 24 22.6667 24ZM9.89335 13.3333H22.1067C21.08 15.68 18.72 17.3333 16 17.3333C13.28 17.3333 10.92 15.68 9.89335 13.3333Z" fill="#1A4301"/>
<path d="M12.5467 9.33332H13.88C14.08 7.79999 14.1867 7.14666 12.6934 5.38666C12.1334 4.71999 11.7867 4.35999 12.08 2.66666H10.76C10.48 4.14666 10.8 5.39999 11.9467 6.61332C12.24 6.93332 13 7.50666 12.5467 9.33332Z" fill="#1A4301"/>
<path d="M15.8533 9.33332H17.1867C17.3867 7.79999 17.4933 7.14666 16 5.38666C15.44 4.71999 15.0933 4.34666 15.3867 2.66666H14.0667C13.7867 4.14666 14.1067 5.39999 15.2533 6.61332C15.56 6.93332 16.32 7.50666 15.8533 9.33332Z" fill="#1A4301"/>
<path d="M19.2134 9.33332H20.5467C20.7467 7.79999 20.8534 7.14666 19.3601 5.38666C18.8001 4.71999 18.4534 4.35999 18.7467 2.66666H17.4267C17.1467 4.14666 17.4667 5.39999 18.6134 6.61332C18.9067 6.93332 19.6667 7.50666 19.2134 9.33332Z" fill="#1A4301"/>
</g>
<defs>
<clipPath id="clip0_1_76">
<rect width="32" height="32" fill="white"/>
</clipPath>
</defs>
</svg>
