<svg width="40" height="40" viewBox="0 0 40 40" fill="none" xmlns="http://www.w3.org/2000/svg">
<path d="M9.68 29C11.36 27.8267 13.0267 26.9267 14.68 26.3C16.3333 25.6733 18.1067 25.36 20 25.36C21.8933 25.36 23.6733 25.6733 25.34 26.3C27.0067 26.9267 28.68 27.8267 30.36 29C31.5333 27.56 32.3667 26.1067 32.86 24.64C33.3533 23.1733 33.6 21.6267 33.6 20C33.6 16.1333 32.3 12.9 29.7 10.3C27.1 7.7 23.8667 6.4 20 6.4C16.1333 6.4 12.9 7.7 10.3 10.3C7.7 12.9 6.4 16.1333 6.4 20C6.4 21.6267 6.65333 23.1733 7.16 24.64C7.66667 26.1067 8.50667 27.56 9.68 29ZM20 21.2C18.4533 21.2 17.1533 20.6733 16.1 19.62C15.0467 18.5667 14.52 17.2667 14.52 15.72C14.52 14.1733 15.0467 12.8733 16.1 11.82C17.1533 10.7667 18.4533 10.24 20 10.24C21.5467 10.24 22.8467 10.7667 23.9 11.82C24.9533 12.8733 25.48 14.1733 25.48 15.72C25.48 17.2667 24.9533 18.5667 23.9 19.62C22.8467 20.6733 21.5467 21.2 20 21.2ZM20 36C17.8133 36 15.7467 35.58 13.8 34.74C11.8533 33.9 10.1533 32.7533 8.7 31.3C7.24667 29.8467 6.1 28.1467 5.26 26.2C4.42 24.2533 4 22.1867 4 20C4 17.7867 4.42 15.7133 5.26 13.78C6.1 11.8467 7.24667 10.1533 8.7 8.7C10.1533 7.24667 11.8533 6.1 13.8 5.26C15.7467 4.42 17.8133 4 20 4C22.2133 4 24.2867 4.42 26.22 5.26C28.1533 6.1 29.8467 7.24667 31.3 8.7C32.7533 10.1533 33.9 11.8467 34.74 13.78C35.58 15.7133 36 17.7867 36 20C36 22.1867 35.58 24.2533 34.74 26.2C33.9 28.1467 32.7533 29.8467 31.3 31.3C29.8467 32.7533 28.1533 33.9 26.22 34.74C24.2867 35.58 22.2133 36 20 36ZM20 33.6C21.4667 33.6 22.9 33.3867 24.3 32.96C25.7 32.5333 27.08 31.7867 28.44 30.72C27.08 29.76 25.6933 29.0267 24.28 28.52C22.8667 28.0133 21.44 27.76 20 27.76C18.56 27.76 17.1333 28.0133 15.72 28.52C14.3067 29.0267 12.92 29.76 11.56 30.72C12.92 31.7867 14.3 32.5333 15.7 32.96C17.1 33.3867 18.5333 33.6 20 33.6ZM20 18.8C20.9067 18.8 21.6467 18.5133 22.22 17.94C22.7933 17.3667 23.08 16.6267 23.08 15.72C23.08 14.8133 22.7933 14.0733 22.22 13.5C21.6467 12.9267 20.9067 12.64 20 12.64C19.0933 12.64 18.3533 12.9267 17.78 13.5C17.2067 14.0733 16.92 14.8133 16.92 15.72C16.92 16.6267 17.2067 17.3667 17.78 17.94C18.3533 18.5133 19.0933 18.8 20 18.8Z" fill="white"/>
</svg>
