<svg width="32" height="32" viewBox="0 0 32 32" fill="none" xmlns="http://www.w3.org/2000/svg">
<g clip-path="url(#clip0_1_41)">
<path d="M11.4 16C9.97336 15.0533 8.40003 14.3067 6.69336 13.8533C8.40003 14.3067 9.97336 15.0533 11.4 16ZM25.3067 13.8533C23.5867 14.3067 21.9867 15.0667 20.5467 16.04C21.9867 15.0667 23.5867 14.3067 25.3067 13.8533Z" fill="#1A4301"/>
<path d="M20.6533 12.84C20.4133 9.12002 18.9066 5.49335 16.08 2.66669C13.2266 5.52002 11.6533 9.14669 11.3466 12.84C13.0533 13.7467 14.6266 14.92 16 16.3467C17.3733 14.9334 18.9466 13.76 20.6533 12.84ZM11.9866 16.3734C11.8 16.24 11.5866 16.12 11.3866 15.9867C11.5866 16.1334 11.8 16.24 11.9866 16.3734ZM20.5466 16.04C20.3733 16.16 20.1866 16.2534 20.0133 16.3867C20.1866 16.2534 20.3733 16.16 20.5466 16.04ZM16 20.6C13.1333 16.2267 8.23996 13.3334 2.66663 13.3334C2.66663 20.4267 7.14663 26.4267 13.3733 28.6534C14.2133 28.96 15.0933 29.1867 16 29.3334C16.9066 29.1734 17.7733 28.9467 18.6266 28.6534C24.8533 26.4267 29.3333 20.4267 29.3333 13.3334C23.76 13.3334 18.8666 16.2267 16 20.6Z" fill="#1A4301"/>
</g>
<defs>
<clipPath id="clip0_1_41">
<rect width="32" height="32" fill="white"/>
</clipPath>
</defs>
</svg>
