<svg width="32" height="32" viewBox="0 0 32 32" fill="none" xmlns="http://www.w3.org/2000/svg">
<g clip-path="url(#clip0_1_63)">
<path d="M13.3333 10.6667L8.99996 15C9.41329 15.16 9.74663 15.36 10.0266 15.52C10.52 15.8267 10.8133 16 11.56 16C12.3066 16 12.6 15.8267 13.0933 15.52C13.7066 15.16 14.5333 14.6667 16.0133 14.6667C17.4933 14.6667 18.32 15.16 18.92 15.52C19.4133 15.8134 19.72 16 20.4533 16C21.1866 16 21.4933 15.8267 21.9866 15.52C22.1466 15.4267 22.3333 15.32 22.5333 15.2134L13.9733 6.6667C11.9066 4.60003 9.99996 3.9867 6.66663 4.00003V7.33336C9.09329 7.32003 10.52 7.85336 12 9.33336L13.3333 10.6667ZM29.3333 22H29.3066H29.3333ZM7.13329 20.6667C7.86663 20.6667 8.17329 20.8534 8.66663 21.1467C9.26663 21.5067 10.0933 22 11.5733 22C13.0533 22 13.88 21.5067 14.48 21.1467C14.9733 20.84 15.2666 20.6667 16.0133 20.6667C16.7466 20.6667 17.0533 20.8534 17.5466 21.1467C18.1466 21.5067 18.9733 22 20.4533 22C21.9333 22 22.76 21.5067 23.36 21.1467C23.8533 20.84 24.1466 20.6667 24.8933 20.6667C25.6266 20.6667 25.9333 20.8534 26.4266 21.1467C27.0266 21.5067 27.84 21.9867 29.3066 22V19.3334C28.5733 19.3334 28.2666 19.1467 27.7733 18.8534C27.1733 18.4934 26.3466 18 24.8666 18C23.3866 18 22.56 18.4934 21.96 18.8534C21.4666 19.16 21.16 19.3334 20.4266 19.3334C19.6933 19.3334 19.3866 19.1467 18.8933 18.8534C18.2933 18.4934 17.4666 18 15.9866 18C14.5066 18 13.68 18.4934 13.08 18.8534C12.5866 19.16 12.2933 19.3334 11.5466 19.3334C10.8133 19.3334 10.5066 19.1467 10.0133 18.8534C9.41329 18.4934 8.58663 18 7.10663 18C5.62663 18 4.79996 18.4934 4.19996 18.8534C3.70663 19.16 3.41329 19.3334 2.66663 19.3334V22C4.14663 22 4.97329 21.5067 5.59996 21.1467C6.09329 20.84 6.39996 20.6667 7.13329 20.6667ZM24.8933 24C23.4133 24 22.5866 24.4934 21.9866 24.8534C21.4933 25.16 21.1866 25.3334 20.4533 25.3334C19.72 25.3334 19.4133 25.1467 18.92 24.8534C18.32 24.4934 17.4933 24 16.0133 24C14.5333 24 13.7066 24.4934 13.0933 24.8534C12.6 25.16 12.3066 25.3334 11.56 25.3334C10.8133 25.3334 10.52 25.16 10.0266 24.8534C9.42663 24.4934 8.59996 24 7.11996 24C5.63996 24 4.81329 24.4934 4.19996 24.8534C3.70663 25.16 3.41329 25.3334 2.66663 25.3334V28C4.14663 28 4.97329 27.5067 5.58663 27.1467C6.07996 26.84 6.38663 26.6667 7.11996 26.6667C7.85329 26.6667 8.15996 26.84 8.65329 27.1467C9.25329 27.5067 10.08 28 11.56 28C13.04 28 13.8666 27.5067 14.48 27.1467C14.9733 26.84 15.2666 26.6667 16.0133 26.6667C16.7466 26.6667 17.0533 26.8534 17.5466 27.1467C18.1466 27.5067 18.9733 28 20.4533 28C21.9333 28 22.7466 27.5067 23.36 27.1467C23.8533 26.84 24.1466 26.6667 24.8933 26.6667C25.6266 26.6667 25.9333 26.8534 26.4266 27.1467C27.0266 27.5067 27.8533 28 29.3333 28V25.3334C28.5866 25.3334 28.2933 25.16 27.8 24.8534C27.2 24.4934 26.3733 24 24.8933 24Z" fill="#1A4301"/>
<path d="M22 10.6667C23.841 10.6667 25.3334 9.17428 25.3334 7.33333C25.3334 5.49238 23.841 4 22 4C20.1591 4 18.6667 5.49238 18.6667 7.33333C18.6667 9.17428 20.1591 10.6667 22 10.6667Z" fill="#1A4301"/>
</g>
<defs>
<clipPath id="clip0_1_63">
<rect width="32" height="32" fill="white"/>
</clipPath>
</defs>
</svg>
