<svg width="32" height="32" viewBox="0 0 32 32" fill="none" xmlns="http://www.w3.org/2000/svg">
<g clip-path="url(#clip0_1_53)">
<path d="M22.6666 8.23999V2.66666H20V8.23999C18.4533 8.79999 17.3333 10.2667 17.3333 12C17.3333 13.7333 18.4533 15.2 20 15.76V20C20 22.9467 17.6133 25.3333 14.6666 25.3333C11.72 25.3333 9.33329 22.9467 9.33329 20V18.44L11.4533 20.56L13.3333 18.6667L6.66663 12V20C6.66663 24.4133 10.2533 28 14.6666 28C19.08 28 22.6666 24.4133 22.6666 20V15.76C24.2133 15.2133 25.3333 13.7467 25.3333 12C25.3333 10.2533 24.2133 8.79999 22.6666 8.23999ZM21.3333 13.3333C20.6 13.3333 20 12.7333 20 12C20 11.2667 20.6 10.6667 21.3333 10.6667C22.0666 10.6667 22.6666 11.2667 22.6666 12C22.6666 12.7333 22.0666 13.3333 21.3333 13.3333Z" fill="#1A4301"/>
</g>
<defs>
<clipPath id="clip0_1_53">
<rect width="32" height="32" fill="white"/>
</clipPath>
</defs>
</svg>
