<svg width="110" height="63" viewBox="0 0 110 63" fill="none" xmlns="http://www.w3.org/2000/svg">
<path d="M67.16 5.36C68.2533 5.36 68.8 5.70667 68.8 6.4C68.8 6.58667 68.7867 6.72 68.76 6.8C68.68 7.06667 68.56 7.28 68.4 7.44C68.24 7.57333 68.0133 7.73333 67.72 7.92C67.32 8.16 66.9867 8.42666 66.72 8.72C66.4533 9.01333 66.2267 9.46667 66.04 10.08L61.08 27.84C60.6267 29.44 60.0533 30.56 59.36 31.2C58.6933 31.84 57.76 32.16 56.56 32.16C55.4933 32.16 54.6 31.8533 53.88 31.24C53.1867 30.6 52.5333 29.6267 51.92 28.32L45.88 15.6L42.52 27.28C42.44 27.6267 42.4 27.9333 42.4 28.2C42.4 28.5467 42.4533 28.84 42.56 29.08C42.6933 29.2933 42.8667 29.52 43.08 29.76C43.3733 30.1067 43.52 30.4 43.52 30.64C43.52 30.8 43.5067 30.92 43.48 31C43.3733 31.3733 43.1333 31.64 42.76 31.8C42.3867 31.9333 41.8267 32 41.08 32H36.72C35.6267 32 35.08 31.6533 35.08 30.96C35.08 30.7733 35.0933 30.64 35.12 30.56C35.2 30.2933 35.32 30.0933 35.48 29.96C35.64 29.8 35.8667 29.6267 36.16 29.44C36.56 29.2 36.8933 28.9333 37.16 28.64C37.4267 28.3467 37.6533 27.8933 37.84 27.28L42.92 9.32L42.28 8C42.0133 7.46667 41.88 7 41.88 6.6C41.88 5.77333 42.4133 5.36 43.48 5.36H49.4C50.2533 5.36 50.8933 5.56 51.32 5.96C51.7733 6.33333 52.2533 7.01333 52.76 8L58.6 19.72L61.36 10.08C61.44 9.70667 61.48 9.4 61.48 9.16C61.48 8.81333 61.4133 8.53333 61.28 8.32C61.1733 8.08 61.0133 7.84 60.8 7.6C60.5067 7.25333 60.36 6.96 60.36 6.72C60.36 6.56 60.3733 6.44 60.4 6.36C60.5067 5.98667 60.7467 5.73333 61.12 5.6C61.4933 5.44 62.0533 5.36 62.8 5.36H67.16Z" fill="white"/>
<path d="M13.464 45.344C13.9013 45.344 14.12 45.4827 14.12 45.76C14.12 45.8347 14.1147 45.888 14.104 45.92C14.072 46.0267 14.024 46.112 13.96 46.176C13.896 46.2293 13.8053 46.2933 13.688 46.368C13.528 46.464 13.3947 46.5707 13.288 46.688C13.1813 46.8053 13.0907 46.9867 13.016 47.232L11.032 54.336C10.8507 54.976 10.6213 55.424 10.344 55.68C10.0773 55.936 9.704 56.064 9.224 56.064C8.79733 56.064 8.44 55.9413 8.152 55.696C7.87467 55.44 7.61333 55.0507 7.368 54.528L4.952 49.44L3.608 54.112C3.576 54.2507 3.56 54.3733 3.56 54.48C3.56 54.6187 3.58133 54.736 3.624 54.832C3.67733 54.9173 3.74667 55.008 3.832 55.104C3.94933 55.2427 4.008 55.36 4.008 55.456C4.008 55.52 4.00267 55.568 3.992 55.6C3.94933 55.7493 3.85333 55.856 3.704 55.92C3.55467 55.9733 3.33067 56 3.032 56H1.288C0.850667 56 0.632 55.8613 0.632 55.584C0.632 55.5093 0.637333 55.456 0.648 55.424C0.68 55.3173 0.728 55.2373 0.792 55.184C0.856 55.12 0.946667 55.0507 1.064 54.976C1.224 54.88 1.35733 54.7733 1.464 54.656C1.57067 54.5387 1.66133 54.3573 1.736 54.112L3.768 46.928L3.512 46.4C3.40533 46.1867 3.352 46 3.352 45.84C3.352 45.5093 3.56533 45.344 3.992 45.344H6.36C6.70133 45.344 6.95733 45.424 7.128 45.584C7.30933 45.7333 7.50133 46.0053 7.704 46.4L10.04 51.088L11.144 47.232C11.176 47.0827 11.192 46.96 11.192 46.864C11.192 46.7253 11.1653 46.6133 11.112 46.528C11.0693 46.432 11.0053 46.336 10.92 46.24C10.8027 46.1013 10.744 45.984 10.744 45.888C10.744 45.824 10.7493 45.776 10.76 45.744C10.8027 45.5947 10.8987 45.4933 11.048 45.44C11.1973 45.376 11.4213 45.344 11.72 45.344H13.464ZM18.337 47.536C19.5637 47.536 20.545 47.7653 21.281 48.224C22.017 48.672 22.385 49.36 22.385 50.288C22.385 50.64 22.321 51.04 22.193 51.488L21.537 53.696C21.5263 53.7387 21.521 53.792 21.521 53.856C21.521 54.0267 21.5903 54.112 21.729 54.112C21.857 54.112 21.9637 54.0587 22.049 53.952C22.145 53.8347 22.209 53.776 22.241 53.776C22.2943 53.776 22.337 53.8133 22.369 53.888C22.4117 53.9627 22.433 54.048 22.433 54.144C22.4437 54.432 22.3317 54.7253 22.097 55.024C21.873 55.3227 21.569 55.568 21.185 55.76C20.801 55.952 20.3797 56.048 19.921 56.048C19.3663 56.048 18.8917 55.9467 18.497 55.744C18.1023 55.5413 17.8303 55.2427 17.681 54.848C17.361 55.232 16.9823 55.5307 16.545 55.744C16.1077 55.9467 15.6383 56.048 15.137 56.048C14.5717 56.048 14.097 55.9413 13.713 55.728C13.329 55.504 13.041 55.2213 12.849 54.88C12.6677 54.528 12.577 54.16 12.577 53.776C12.577 53.6053 12.593 53.44 12.625 53.28C12.7957 52.544 13.1637 51.9893 13.729 51.616C14.305 51.2427 14.9877 51.056 15.777 51.056C16.6623 51.056 17.5317 51.1947 18.385 51.472L18.785 50.416C18.9237 49.968 18.993 49.6213 18.993 49.376C18.9823 49.12 18.897 48.928 18.737 48.8C18.577 48.672 18.3317 48.608 18.001 48.608C18.065 48.7787 18.097 48.9547 18.097 49.136C18.097 49.5307 17.9477 49.872 17.649 50.16C17.3503 50.448 16.9237 50.592 16.369 50.592C15.8463 50.592 15.4357 50.48 15.137 50.256C14.849 50.0213 14.705 49.7333 14.705 49.392C14.705 48.8587 15.0037 48.416 15.601 48.064C16.1983 47.712 17.1103 47.536 18.337 47.536ZM17.441 52.384C17.1423 52.384 16.897 52.5013 16.705 52.736C16.5237 52.96 16.433 53.2053 16.433 53.472C16.433 53.6427 16.4703 53.7813 16.545 53.888C16.6303 53.9947 16.7477 54.048 16.897 54.048C17.0357 54.048 17.185 53.9947 17.345 53.888C17.5157 53.7707 17.6383 53.6 17.713 53.376L18.049 52.432C17.8677 52.4 17.665 52.384 17.441 52.384ZM30.2458 47.744C30.4484 47.744 30.6031 47.7867 30.7098 47.872C30.8271 47.9573 30.8858 48.0747 30.8858 48.224C30.8858 48.2667 30.8751 48.3413 30.8538 48.448C30.7151 48.9173 30.3951 49.152 29.8938 49.152H28.9658L27.7658 53.104C27.7124 53.264 27.6858 53.4293 27.6858 53.6C27.6858 53.792 27.7391 53.9253 27.8458 54C27.9524 54.0747 28.1018 54.112 28.2938 54.112C28.4644 54.112 28.6778 54.0907 28.9338 54.048C29.0618 54.016 29.1738 54 29.2698 54C29.3444 54 29.3978 54.0267 29.4298 54.08C29.4724 54.1227 29.4938 54.1813 29.4938 54.256C29.5044 54.4693 29.3444 54.7307 29.0138 55.04C28.6938 55.3387 28.2564 55.6 27.7018 55.824C27.1471 56.0373 26.5338 56.144 25.8618 56.144C25.1364 56.144 24.5551 55.9787 24.1178 55.648C23.6804 55.3173 23.4618 54.864 23.4618 54.288C23.4618 54.0213 23.5044 53.7653 23.5898 53.52L24.6138 50.352C24.6671 50.1707 24.6938 50.0267 24.6938 49.92C24.6938 49.7067 24.6404 49.5253 24.5338 49.376C24.4378 49.2267 24.2991 49.072 24.1178 48.912C23.9578 48.7627 23.8458 48.64 23.7818 48.544C23.7178 48.4373 23.7018 48.3147 23.7338 48.176C23.7764 48.0373 23.8671 47.9307 24.0058 47.856C24.1444 47.7813 24.3631 47.744 24.6618 47.744H25.5578L26.5658 46.736C26.9178 46.384 27.2378 46.1387 27.5258 46C27.8244 45.8613 28.2084 45.792 28.6778 45.792C29.3498 45.792 29.6858 46.048 29.6858 46.56C29.6858 46.72 29.6644 46.8693 29.6218 47.008L29.3978 47.744H30.2458ZM39.7853 53.792C39.7639 53.8773 39.7533 53.9413 39.7533 53.984C39.7533 54.0587 39.7693 54.1173 39.8013 54.16C39.8439 54.2027 39.8973 54.224 39.9613 54.224C40.0893 54.224 40.1959 54.1707 40.2812 54.064C40.3773 53.9467 40.4413 53.888 40.4733 53.888C40.5266 53.888 40.5693 53.9253 40.6013 54C40.6439 54.064 40.6653 54.144 40.6653 54.24C40.6759 54.5387 40.5693 54.8373 40.3453 55.136C40.1213 55.424 39.8066 55.664 39.4013 55.856C38.9959 56.048 38.5426 56.144 38.0413 56.144C37.4119 56.144 36.9106 56.016 36.5373 55.76C36.1639 55.504 35.9239 55.168 35.8173 54.752C35.4333 55.1787 35.0066 55.504 34.5373 55.728C34.0786 55.9413 33.6093 56.048 33.1293 56.048C32.3826 56.048 31.7533 55.8667 31.2413 55.504C30.7399 55.1307 30.4893 54.6133 30.4893 53.952C30.4893 53.6533 30.5426 53.344 30.6493 53.024L31.6733 49.68C31.7053 49.584 31.7213 49.504 31.7213 49.44C31.7213 49.3227 31.6946 49.232 31.6413 49.168C31.5879 49.0933 31.5079 49.0187 31.4013 48.944C31.2946 48.8587 31.2199 48.784 31.1773 48.72C31.1346 48.656 31.1293 48.5707 31.1613 48.464C31.2253 48.2187 31.5613 48.0053 32.1693 47.824C32.7773 47.632 33.4119 47.536 34.0733 47.536C34.6919 47.536 35.1453 47.6533 35.4333 47.888C35.7213 48.1227 35.8653 48.4427 35.8653 48.848C35.8653 49.0933 35.8279 49.328 35.7533 49.552L34.7453 52.88C34.7026 52.9973 34.6813 53.1093 34.6813 53.216C34.6813 53.3653 34.7239 53.4773 34.8093 53.552C34.8946 53.6267 35.0066 53.664 35.1453 53.664C35.3479 53.664 35.5133 53.6053 35.6413 53.488C35.7693 53.3707 35.8973 53.1733 36.0253 52.896L37.0013 49.68C37.0333 49.584 37.0493 49.504 37.0493 49.44C37.0493 49.3227 37.0226 49.232 36.9693 49.168C36.9159 49.0933 36.8413 49.0187 36.7453 48.944C36.6386 48.8587 36.5639 48.784 36.5213 48.72C36.4786 48.656 36.4733 48.5707 36.5053 48.464C36.5586 48.2187 36.8893 48.0053 37.4973 47.824C38.1053 47.632 38.7399 47.536 39.4013 47.536C40.0199 47.536 40.4733 47.6533 40.7613 47.888C41.0599 48.1227 41.2093 48.4373 41.2093 48.832C41.2093 49.0347 41.1666 49.2747 41.0813 49.552L39.7853 53.792ZM49.106 47.536C49.7033 47.536 50.178 47.7173 50.53 48.08C50.8927 48.4427 51.074 48.8907 51.074 49.424C51.074 49.6267 51.0527 49.8133 51.01 49.984C50.9033 50.4213 50.7007 50.7573 50.402 50.992C50.1033 51.2267 49.746 51.344 49.33 51.344C48.9247 51.344 48.6153 51.248 48.402 51.056C48.1993 50.864 48.018 50.608 47.858 50.288C47.7727 50.1067 47.6927 49.9733 47.618 49.888C47.5433 49.8027 47.458 49.76 47.362 49.76C47.2553 49.76 47.1593 49.8027 47.074 49.888C46.9993 49.9733 46.93 50.1227 46.866 50.336L45.634 54.336C45.6127 54.3893 45.602 54.4693 45.602 54.576C45.602 54.7147 45.6393 54.832 45.714 54.928C45.7993 55.0133 45.9113 55.0987 46.05 55.184C46.178 55.2693 46.2633 55.3387 46.306 55.392C46.3487 55.4453 46.3647 55.5147 46.354 55.6C46.3327 55.7387 46.2527 55.84 46.114 55.904C45.986 55.968 45.762 56 45.442 56H41.346C41.0687 56 40.8713 55.9573 40.754 55.872C40.626 55.776 40.578 55.6533 40.61 55.504C40.6527 55.376 40.7647 55.264 40.946 55.168C41.106 55.0827 41.2393 54.9813 41.346 54.864C41.4527 54.7467 41.5433 54.56 41.618 54.304L43.042 49.68C43.0633 49.6267 43.074 49.552 43.074 49.456C43.074 49.3387 43.0473 49.248 42.994 49.184C42.9513 49.12 42.8767 49.04 42.77 48.944C42.6633 48.8587 42.5887 48.784 42.546 48.72C42.5033 48.656 42.498 48.5707 42.53 48.464C42.594 48.2187 42.93 48.0053 43.538 47.824C44.146 47.632 44.7807 47.536 45.442 47.536C45.8793 47.536 46.242 47.6373 46.53 47.84C46.818 48.032 47.0047 48.3093 47.09 48.672C47.602 47.9147 48.274 47.536 49.106 47.536ZM55.9396 47.456C57.2943 47.456 58.2756 47.6747 58.8836 48.112C59.4916 48.5387 59.7956 49.088 59.7956 49.76C59.7956 49.9627 59.7743 50.1493 59.7316 50.32C59.5716 51.024 59.1236 51.5307 58.3876 51.84C57.6623 52.1387 56.8036 52.288 55.8116 52.288C55.3103 52.288 54.841 52.256 54.4036 52.192C54.393 52.7467 54.5423 53.136 54.8516 53.36C55.161 53.584 55.593 53.696 56.1476 53.696C56.4036 53.696 56.649 53.6693 56.8836 53.616C57.1183 53.552 57.417 53.4613 57.7796 53.344C58.0783 53.2373 58.281 53.184 58.3876 53.184C58.505 53.184 58.5636 53.2533 58.5636 53.392C58.5743 53.7653 58.4356 54.16 58.1476 54.576C57.8596 54.9813 57.433 55.328 56.8676 55.616C56.3023 55.904 55.6196 56.048 54.8196 56.048C53.6356 56.048 52.665 55.7493 51.9076 55.152C51.1503 54.5547 50.7716 53.6853 50.7716 52.544C50.7716 52.224 50.8143 51.8507 50.8996 51.424C51.1663 50.112 51.7476 49.1253 52.6436 48.464C53.5503 47.792 54.649 47.456 55.9396 47.456ZM54.5156 51.232C54.5583 51.2427 54.617 51.248 54.6916 51.248C55.1396 51.248 55.481 51.04 55.7156 50.624C55.9503 50.208 56.0623 49.744 56.0516 49.232C56.041 48.9333 55.9556 48.784 55.7956 48.784C55.6783 48.784 55.5396 48.88 55.3796 49.072C55.2196 49.2533 55.0596 49.5307 54.8996 49.904C54.7503 50.2773 54.6223 50.72 54.5156 51.232ZM76.6559 45.344C76.8799 45.344 77.0505 45.3813 77.1679 45.456C77.2959 45.5307 77.3599 45.6267 77.3599 45.744C77.3599 45.7973 77.3439 45.8667 77.3119 45.952C77.2799 46.0267 77.2319 46.096 77.1679 46.16C77.1145 46.2133 77.0612 46.256 77.0079 46.288C76.9652 46.3093 76.9332 46.3307 76.9119 46.352C76.7412 46.448 76.6025 46.5547 76.4959 46.672C76.3892 46.7893 76.2985 46.9707 76.2239 47.216L74.2559 54.112C74.2132 54.2507 74.1919 54.384 74.1919 54.512C74.1919 54.64 74.2079 54.7413 74.2399 54.816C74.2825 54.8907 74.3412 54.9867 74.4159 55.104C74.4265 55.1147 74.4532 55.1573 74.4959 55.232C74.5492 55.296 74.5759 55.3653 74.5759 55.44C74.5759 55.4613 74.5652 55.5147 74.5439 55.6C74.4905 55.7493 74.3892 55.856 74.2399 55.92C74.0905 55.9733 73.8665 56 73.5679 56H69.8079C69.5839 56 69.4079 55.9627 69.2799 55.888C69.1625 55.8133 69.1039 55.712 69.1039 55.584C69.1039 55.52 69.1199 55.4507 69.1519 55.376C69.1945 55.2907 69.2532 55.2213 69.3279 55.168C69.4025 55.104 69.4772 55.0507 69.5519 55.008C69.7225 54.912 69.8612 54.8053 69.9679 54.688C70.0745 54.56 70.1652 54.368 70.2399 54.112L71.0079 51.44H68.1759L67.4079 54.112C67.3652 54.2507 67.3439 54.384 67.3439 54.512C67.3439 54.64 67.3599 54.7413 67.3919 54.816C67.4345 54.8907 67.4932 54.9867 67.5679 55.104C67.5785 55.1147 67.6052 55.1573 67.6479 55.232C67.7012 55.296 67.7279 55.3653 67.7279 55.44C67.7279 55.4613 67.7172 55.5147 67.6959 55.6C67.6425 55.7493 67.5412 55.856 67.3919 55.92C67.2425 55.9733 67.0185 56 66.7199 56H62.9599C62.7359 56 62.5652 55.9627 62.4479 55.888C62.3199 55.8133 62.2559 55.712 62.2559 55.584C62.2559 55.52 62.2719 55.4507 62.3039 55.376C62.3465 55.2907 62.4052 55.2213 62.4799 55.168C62.5545 55.104 62.6292 55.0507 62.7039 55.008C62.8745 54.912 63.0132 54.8053 63.1199 54.688C63.2265 54.56 63.3172 54.368 63.3919 54.112L65.3599 47.216C65.4025 47.0773 65.4239 46.944 65.4239 46.816C65.4239 46.6987 65.4025 46.6027 65.3599 46.528C65.3279 46.4427 65.2799 46.3467 65.2159 46.24C65.1732 46.1867 65.1359 46.1333 65.1039 46.08C65.0719 46.016 65.0559 45.952 65.0559 45.888C65.0559 45.8667 65.0665 45.8133 65.0879 45.728C65.1305 45.5893 65.2265 45.4933 65.3759 45.44C65.5252 45.376 65.7492 45.344 66.0479 45.344H69.8079C70.0319 45.344 70.2025 45.3813 70.3199 45.456C70.4479 45.5307 70.5119 45.6267 70.5119 45.744C70.5119 45.7973 70.4959 45.8667 70.4639 45.952C70.4319 46.0267 70.3839 46.096 70.3199 46.16C70.2665 46.2133 70.2132 46.256 70.1599 46.288C70.1172 46.3093 70.0852 46.3307 70.0639 46.352C69.8932 46.448 69.7545 46.5547 69.6479 46.672C69.5412 46.7893 69.4505 46.9707 69.3759 47.216L68.6239 49.84H71.4559L72.2079 47.216C72.2505 47.0773 72.2719 46.944 72.2719 46.816C72.2719 46.6987 72.2505 46.6027 72.2079 46.528C72.1759 46.4427 72.1279 46.3467 72.0639 46.24C72.0212 46.1867 71.9839 46.1333 71.9519 46.08C71.9199 46.016 71.9039 45.952 71.9039 45.888C71.9039 45.8667 71.9145 45.8133 71.9359 45.728C71.9785 45.5893 72.0745 45.4933 72.2239 45.44C72.3732 45.376 72.5972 45.344 72.8959 45.344H76.6559ZM82.2076 47.536C83.6583 47.536 84.725 47.8293 85.4076 48.416C86.101 49.0027 86.4476 49.7707 86.4476 50.72C86.4476 51.04 86.405 51.3973 86.3196 51.792C86.117 52.6667 85.7383 53.4347 85.1836 54.096C84.629 54.7467 83.9463 55.2533 83.1356 55.616C82.3356 55.968 81.4663 56.144 80.5276 56.144C79.045 56.144 77.9463 55.8507 77.2316 55.264C76.5276 54.6667 76.1756 53.8773 76.1756 52.896C76.1756 52.5653 76.2183 52.1973 76.3036 51.792C76.5063 50.96 76.8903 50.224 77.4556 49.584C78.0316 48.9333 78.7303 48.432 79.5516 48.08C80.3836 47.7173 81.269 47.536 82.2076 47.536ZM82.1596 48.96C81.9356 48.96 81.6956 49.1627 81.4396 49.568C81.1943 49.9627 80.901 50.7147 80.5596 51.824C80.2183 52.9333 80.0476 53.712 80.0476 54.16C80.0476 54.3947 80.085 54.5547 80.1596 54.64C80.2343 54.7147 80.3356 54.752 80.4636 54.752C80.6876 54.7733 80.917 54.5813 81.1516 54.176C81.397 53.7707 81.701 52.9813 82.0636 51.808C82.3943 50.7733 82.5596 50.0213 82.5596 49.552C82.5596 49.328 82.5223 49.1733 82.4476 49.088C82.3836 49.0027 82.2876 48.96 82.1596 48.96ZM93.6676 47.744C93.8703 47.744 94.025 47.7867 94.1316 47.872C94.249 47.9573 94.3076 48.0747 94.3076 48.224C94.3076 48.2667 94.297 48.3413 94.2756 48.448C94.137 48.9173 93.817 49.152 93.3156 49.152H92.3876L91.1876 53.104C91.1343 53.264 91.1076 53.4293 91.1076 53.6C91.1076 53.792 91.161 53.9253 91.2676 54C91.3743 54.0747 91.5236 54.112 91.7156 54.112C91.8863 54.112 92.0996 54.0907 92.3556 54.048C92.4836 54.016 92.5956 54 92.6916 54C92.7663 54 92.8196 54.0267 92.8516 54.08C92.8943 54.1227 92.9156 54.1813 92.9156 54.256C92.9263 54.4693 92.7663 54.7307 92.4356 55.04C92.1156 55.3387 91.6783 55.6 91.1236 55.824C90.569 56.0373 89.9556 56.144 89.2836 56.144C88.5583 56.144 87.977 55.9787 87.5396 55.648C87.1023 55.3173 86.8836 54.864 86.8836 54.288C86.8836 54.0213 86.9263 53.7653 87.0116 53.52L88.0356 50.352C88.089 50.1707 88.1156 50.0267 88.1156 49.92C88.1156 49.7067 88.0623 49.5253 87.9556 49.376C87.8596 49.2267 87.721 49.072 87.5396 48.912C87.3796 48.7627 87.2676 48.64 87.2036 48.544C87.1396 48.4373 87.1236 48.3147 87.1556 48.176C87.1983 48.0373 87.289 47.9307 87.4276 47.856C87.5663 47.7813 87.785 47.744 88.0836 47.744H88.9796L89.9876 46.736C90.3396 46.384 90.6596 46.1387 90.9476 46C91.2463 45.8613 91.6303 45.792 92.0996 45.792C92.7716 45.792 93.1076 46.048 93.1076 46.56C93.1076 46.72 93.0863 46.8693 93.0436 47.008L92.8196 47.744H93.6676ZM98.8146 47.456C100.169 47.456 101.151 47.6747 101.759 48.112C102.367 48.5387 102.671 49.088 102.671 49.76C102.671 49.9627 102.649 50.1493 102.607 50.32C102.447 51.024 101.999 51.5307 101.263 51.84C100.537 52.1387 99.6786 52.288 98.6866 52.288C98.1853 52.288 97.716 52.256 97.2786 52.192C97.268 52.7467 97.4173 53.136 97.7266 53.36C98.036 53.584 98.468 53.696 99.0226 53.696C99.2786 53.696 99.524 53.6693 99.7586 53.616C99.9933 53.552 100.292 53.4613 100.655 53.344C100.953 53.2373 101.156 53.184 101.263 53.184C101.38 53.184 101.439 53.2533 101.439 53.392C101.449 53.7653 101.311 54.16 101.023 54.576C100.735 54.9813 100.308 55.328 99.7426 55.616C99.1773 55.904 98.4946 56.048 97.6946 56.048C96.5106 56.048 95.54 55.7493 94.7826 55.152C94.0253 54.5547 93.6466 53.6853 93.6466 52.544C93.6466 52.224 93.6893 51.8507 93.7746 51.424C94.0413 50.112 94.6226 49.1253 95.5186 48.464C96.4253 47.792 97.524 47.456 98.8146 47.456ZM97.3906 51.232C97.4333 51.2427 97.492 51.248 97.5666 51.248C98.0146 51.248 98.356 51.04 98.5906 50.624C98.8253 50.208 98.9373 49.744 98.9266 49.232C98.916 48.9333 98.8306 48.784 98.6706 48.784C98.5533 48.784 98.4146 48.88 98.2546 49.072C98.0946 49.2533 97.9346 49.5307 97.7746 49.904C97.6253 50.2773 97.4973 50.72 97.3906 51.232ZM107.448 44.176C108.066 44.176 108.52 44.2933 108.808 44.528C109.106 44.7627 109.256 45.0827 109.256 45.488C109.256 45.7227 109.218 45.952 109.144 46.176L106.632 54.336C106.6 54.464 106.584 54.576 106.584 54.672C106.584 54.8107 106.61 54.9227 106.664 55.008C106.717 55.0827 106.792 55.1573 106.888 55.232C106.962 55.3067 107.016 55.3707 107.048 55.424C107.08 55.4667 107.085 55.5253 107.064 55.6C107.01 55.7387 106.904 55.84 106.744 55.904C106.584 55.968 106.338 56 106.008 56H102.36C102.082 56 101.88 55.9573 101.752 55.872C101.624 55.776 101.581 55.6533 101.624 55.504C101.666 55.376 101.778 55.264 101.96 55.168C102.12 55.0827 102.253 54.9813 102.36 54.864C102.466 54.7467 102.557 54.56 102.632 54.304L105.064 46.32C105.096 46.224 105.112 46.144 105.112 46.08C105.112 45.9627 105.08 45.8667 105.016 45.792C104.962 45.7173 104.888 45.6427 104.792 45.568C104.685 45.4827 104.605 45.408 104.552 45.344C104.509 45.28 104.504 45.1947 104.536 45.088C104.6 44.8427 104.936 44.6293 105.544 44.448C106.152 44.2667 106.786 44.176 107.448 44.176Z" fill="white"/>
</svg>
